<mxfile host="app.diagrams.net" modified="2020-12-09T16:34:46.198Z" agent="5.0 (Windows)" etag="s0tDuvu872RF4KEfd6Pb" version="14.0.0" type="github">
  <diagram id="q4SeS_c-BJB0oOPyV-7m" name="Page-1">
    <mxGraphModel dx="984" dy="804" grid="1" gridSize="10" guides="1" tooltips="1" connect="1" arrows="1" fold="1" page="1" pageScale="1" pageWidth="1169" pageHeight="827" math="0" shadow="0">
      <root>
        <object label="" Author="myself" DocRef="###XXX###" id="0">
          <mxCell />
        </object>
        <mxCell id="1" parent="0" />
        <object label="" placeholders="1" id="7oKiPROpSnteBDAmTKtN-1">
          <mxCell style="shape=table;html=1;whiteSpace=wrap;startSize=0;container=1;collapsible=0;childLayout=tableLayout;sketch=0;shadow=1;swimlaneFillColor=#FFFFFF;" parent="1" vertex="1">
            <mxGeometry x="360" y="180" width="570" height="110" as="geometry" />
          </mxCell>
        </object>
        <mxCell id="7oKiPROpSnteBDAmTKtN-2" value="" style="shape=partialRectangle;html=1;whiteSpace=wrap;collapsible=0;dropTarget=0;pointerEvents=0;fillColor=none;top=0;left=0;bottom=0;right=0;points=[[0,0.5],[1,0.5]];portConstraint=eastwest;" parent="7oKiPROpSnteBDAmTKtN-1" vertex="1">
          <mxGeometry width="570" height="36" as="geometry" />
        </mxCell>
        <object label="" placeholders="1" id="7oKiPROpSnteBDAmTKtN-3">
          <mxCell style="shape=partialRectangle;html=1;whiteSpace=wrap;connectable=0;overflow=hidden;fillColor=none;top=0;left=0;bottom=0;right=0;" parent="7oKiPROpSnteBDAmTKtN-2" vertex="1">
            <mxGeometry width="93" height="36" as="geometry" />
          </mxCell>
        </object>
        <object label="&lt;font size=&quot;1&quot;&gt;&lt;b style=&quot;font-size: 16px&quot;&gt;Diagram for software components&lt;/b&gt;&lt;/font&gt;" placeholders="1" id="7oKiPROpSnteBDAmTKtN-4">
          <mxCell style="shape=partialRectangle;html=1;whiteSpace=wrap;connectable=0;overflow=hidden;fillColor=none;top=0;left=0;bottom=0;right=0;" parent="7oKiPROpSnteBDAmTKtN-2" vertex="1">
            <mxGeometry x="93" width="361" height="36" as="geometry" />
          </mxCell>
        </object>
        <object label="" placeholders="1" id="7oKiPROpSnteBDAmTKtN-5">
          <mxCell style="shape=partialRectangle;html=1;whiteSpace=wrap;connectable=0;overflow=hidden;fillColor=none;top=0;left=0;bottom=0;right=0;" parent="7oKiPROpSnteBDAmTKtN-2" vertex="1">
            <mxGeometry x="454" width="116" height="36" as="geometry" />
          </mxCell>
        </object>
        <mxCell id="7oKiPROpSnteBDAmTKtN-6" value="" style="shape=partialRectangle;html=1;whiteSpace=wrap;collapsible=0;dropTarget=0;pointerEvents=0;fillColor=none;top=0;left=0;bottom=0;right=0;points=[[0,0.5],[1,0.5]];portConstraint=eastwest;" parent="7oKiPROpSnteBDAmTKtN-1" vertex="1">
          <mxGeometry y="36" width="570" height="38" as="geometry" />
        </mxCell>
        <object label="" placeholders="1" id="7oKiPROpSnteBDAmTKtN-7">
          <mxCell style="shape=partialRectangle;html=1;whiteSpace=wrap;connectable=0;overflow=hidden;fillColor=none;top=0;left=0;bottom=0;right=0;" parent="7oKiPROpSnteBDAmTKtN-6" vertex="1">
            <mxGeometry width="93" height="38" as="geometry" />
          </mxCell>
        </object>
        <object label="&lt;font style=&quot;font-size: 16px&quot;&gt;%filename%&lt;/font&gt;" placeholders="1" id="7oKiPROpSnteBDAmTKtN-8">
          <mxCell style="shape=partialRectangle;html=1;whiteSpace=wrap;connectable=0;overflow=hidden;fillColor=none;top=0;left=0;bottom=0;right=0;" parent="7oKiPROpSnteBDAmTKtN-6" vertex="1">
            <mxGeometry x="93" width="361" height="38" as="geometry" />
          </mxCell>
        </object>
        <object label="&lt;font style=&quot;font-size: 14px&quot;&gt;%Author%&lt;/font&gt;" placeholders="1" id="7oKiPROpSnteBDAmTKtN-9">
          <mxCell style="shape=partialRectangle;html=1;whiteSpace=wrap;connectable=0;overflow=hidden;fillColor=none;top=0;left=0;bottom=0;right=0;" parent="7oKiPROpSnteBDAmTKtN-6" vertex="1">
            <mxGeometry x="454" width="116" height="38" as="geometry" />
          </mxCell>
        </object>
        <mxCell id="7oKiPROpSnteBDAmTKtN-10" value="" style="shape=partialRectangle;html=1;whiteSpace=wrap;collapsible=0;dropTarget=0;pointerEvents=0;fillColor=none;top=0;left=0;bottom=0;right=0;points=[[0,0.5],[1,0.5]];portConstraint=eastwest;" parent="7oKiPROpSnteBDAmTKtN-1" vertex="1">
          <mxGeometry y="74" width="570" height="36" as="geometry" />
        </mxCell>
        <object label="i am" placeholders="1" id="7oKiPROpSnteBDAmTKtN-11">
          <mxCell style="shape=partialRectangle;html=1;whiteSpace=wrap;connectable=0;overflow=hidden;fillColor=none;top=0;left=0;bottom=0;right=0;" parent="7oKiPROpSnteBDAmTKtN-10" vertex="1">
            <mxGeometry width="93" height="36" as="geometry" />
          </mxCell>
        </object>
        <object label="&lt;span style=&quot;font-size: 18px&quot;&gt;%DocRef%&lt;/span&gt;" placeholders="1" id="7oKiPROpSnteBDAmTKtN-12">
          <mxCell style="shape=partialRectangle;html=1;whiteSpace=wrap;connectable=0;overflow=hidden;fillColor=none;top=0;left=0;bottom=0;right=0;" parent="7oKiPROpSnteBDAmTKtN-10" vertex="1">
            <mxGeometry x="93" width="361" height="36" as="geometry" />
          </mxCell>
        </object>
        <object label="&lt;font style=&quot;font-size: 14px&quot;&gt;%date{isoDate}%&lt;/font&gt;" placeholders="1" id="7oKiPROpSnteBDAmTKtN-13">
          <mxCell style="shape=partialRectangle;html=1;whiteSpace=wrap;connectable=0;overflow=hidden;fillColor=none;top=0;left=0;bottom=0;right=0;" parent="7oKiPROpSnteBDAmTKtN-10" vertex="1">
            <mxGeometry x="454" width="116" height="36" as="geometry" />
          </mxCell>
        </object>
        <object label="&lt;table style=&quot;width: 100% ; height: 100% ; border-collapse: collapse&quot; width=&quot;100%&quot; cellpadding=&quot;4&quot; border=&quot;1&quot;&gt;&lt;tbody&gt;&lt;tr&gt;&lt;th align=&quot;center&quot;&gt;&lt;b&gt;some project&lt;/b&gt;&lt;/th&gt;&lt;/tr&gt;&lt;tr&gt;&lt;td align=&quot;center&quot;&gt;%DocRef%&lt;/td&gt;&lt;/tr&gt;&lt;tr&gt;&lt;td align=&quot;center&quot;&gt;%date%&lt;/td&gt;&lt;/tr&gt;&lt;/tbody&gt;&lt;/table&gt;" placeholders="1" id="yizH5Jb1sns2sNq7klML-1">
          <mxCell style="text;html=1;strokeColor=none;fillColor=none;overflow=fill;" vertex="1" parent="1">
            <mxGeometry x="380" y="435" width="550" height="100" as="geometry" />
          </mxCell>
        </object>
        <mxCell id="yizH5Jb1sns2sNq7klML-2" value="properties work" style="text;html=1;strokeColor=none;fillColor=none;align=center;verticalAlign=middle;whiteSpace=wrap;rounded=0;" vertex="1" parent="1">
          <mxGeometry x="140" y="225" width="150" height="20" as="geometry" />
        </mxCell>
        <mxCell id="yizH5Jb1sns2sNq7klML-3" value="" style="shape=flexArrow;endArrow=classic;html=1;entryX=0;entryY=0.5;entryDx=0;entryDy=0;" edge="1" parent="1" source="yizH5Jb1sns2sNq7klML-2" target="7oKiPROpSnteBDAmTKtN-6">
          <mxGeometry width="50" height="50" relative="1" as="geometry">
            <mxPoint x="520" y="455" as="sourcePoint" />
            <mxPoint x="570" y="405" as="targetPoint" />
          </mxGeometry>
        </mxCell>
        <mxCell id="yizH5Jb1sns2sNq7klML-4" value="Properties don&#39;t work" style="text;html=1;strokeColor=none;fillColor=none;align=center;verticalAlign=middle;whiteSpace=wrap;rounded=0;" vertex="1" parent="1">
          <mxGeometry x="130" y="475" width="150" height="20" as="geometry" />
        </mxCell>
        <mxCell id="yizH5Jb1sns2sNq7klML-5" value="" style="shape=flexArrow;endArrow=classic;html=1;entryX=0;entryY=0.5;entryDx=0;entryDy=0;" edge="1" parent="1" source="yizH5Jb1sns2sNq7klML-4" target="yizH5Jb1sns2sNq7klML-1">
          <mxGeometry width="50" height="50" relative="1" as="geometry">
            <mxPoint x="290" y="235" as="sourcePoint" />
            <mxPoint x="360" y="235" as="targetPoint" />
          </mxGeometry>
        </mxCell>
        <mxCell id="yizH5Jb1sns2sNq7klML-6" value="&lt;font style=&quot;font-size: 25px&quot;&gt;Both shapes are set as &quot;placeholders&quot;&lt;/font&gt;" style="text;html=1;strokeColor=none;fillColor=none;align=center;verticalAlign=middle;whiteSpace=wrap;rounded=0;" vertex="1" parent="1">
          <mxGeometry x="170" y="30" width="630" height="30" as="geometry" />
        </mxCell>
      </root>
    </mxGraphModel>
  </diagram>
</mxfile>
